# Blender 3.5.0
# www.blender.org
o Fluorescent_Lamp_1
v -0.144752 -0.007578 0.499931
v 0.147470 -0.007578 0.499931
v -0.144752 -0.007578 -0.500069
v 0.147470 -0.007578 -0.500069
v -0.144752 -0.001425 0.499931
v 0.145309 -0.001758 0.499931
v -0.144752 -0.001425 -0.500069
v 0.145309 -0.001758 -0.500069
v -0.150910 -0.072599 -0.497470
v -0.150910 -0.072599 -0.506321
v 0.153657 -0.072599 -0.506321
v 0.153657 -0.072599 -0.497470
v -0.150910 0.000109 -0.497470
v 0.153657 0.000109 -0.497470
v 0.153657 0.000109 -0.506321
v -0.150910 0.000109 -0.506321
v -0.150910 -0.072599 0.506321
v -0.150910 -0.072599 0.497470
v 0.153657 -0.072599 0.497470
v 0.153657 -0.072599 0.506321
v -0.150910 0.000109 0.506321
v 0.153657 0.000109 0.506321
v 0.153657 0.000109 0.497470
v -0.150910 0.000109 0.497470
v -0.148955 -0.069128 0.499931
v -0.146324 -0.071758 -0.500069
v 0.151373 -0.069128 -0.500069
v 0.148743 -0.071758 0.499931
v 0.151373 -0.001758 -0.500069
v 0.151373 -0.001758 0.499931
v -0.148955 -0.001758 0.499931
v -0.148955 -0.001758 -0.500069
v 0.149078 -0.001758 -0.500069
v 0.149078 -0.001758 0.499931
v -0.146597 -0.001758 0.499931
v -0.146597 -0.001758 -0.500069
v 0.146447 -0.069478 -0.500069
v 0.149078 -0.066847 0.499931
v -0.143966 -0.069478 0.499931
v -0.146597 -0.066847 -0.500069
v -0.146324 -0.071758 0.499931
v -0.148955 -0.069128 -0.500069
v 0.148743 -0.071758 -0.500069
v 0.151373 -0.069128 0.499931
v 0.149078 -0.066847 -0.500069
v 0.146447 -0.069478 0.499931
v -0.146597 -0.066847 0.499931
v -0.143966 -0.069478 -0.500069
v -0.118941 -0.009894 0.499931
v -0.117169 -0.011665 -0.500069
v 0.121014 -0.009971 -0.500069
v 0.119760 -0.011665 0.499931
v 0.119753 -0.005846 -0.500069
v 0.119753 -0.005846 0.499931
v -0.118941 -0.005846 0.499931
v -0.118941 -0.005846 -0.500069
v -0.117169 -0.011665 0.499931
v -0.118941 -0.009894 -0.500069
v 0.119760 -0.011665 -0.500069
v 0.121014 -0.009971 0.499931
v -0.067044 -0.045635 0.478190
v -0.073956 -0.038722 0.469339
v 0.069790 -0.045635 0.469339
v 0.069790 -0.045635 0.478190
v 0.076703 -0.009668 0.478190
v -0.073956 -0.009668 0.478190
v 0.076703 -0.009668 0.469339
v -0.073956 -0.009668 0.469339
v -0.073956 -0.038722 0.478190
v -0.067044 -0.045635 0.469339
v 0.076703 -0.038722 0.469339
v 0.076703 -0.038722 0.478190
v -0.035392 -0.028697 -0.435924
v -0.037302 -0.022819 -0.435924
v -0.042302 -0.019186 -0.435924
v -0.048482 -0.019186 -0.435924
v -0.053482 -0.022819 -0.435924
v -0.055392 -0.028697 -0.435924
v -0.053482 -0.034574 -0.435924
v -0.048482 -0.038207 -0.435924
v -0.042302 -0.038207 -0.435924
v -0.037302 -0.034574 -0.435924
v -0.035392 -0.028697 0.471126
v -0.037302 -0.022819 0.471126
v -0.042302 -0.019186 0.471126
v -0.048482 -0.019186 0.471126
v -0.053482 -0.022819 0.471126
v -0.055392 -0.028697 0.471126
v -0.053482 -0.034574 0.471126
v -0.048482 -0.038207 0.471126
v -0.042302 -0.038207 0.471126
v -0.037302 -0.034574 0.471126
v -0.067044 -0.045635 -0.435363
v -0.067044 -0.045635 -0.444214
v 0.069790 -0.045635 -0.444214
v 0.069790 -0.045635 -0.435363
v -0.073956 -0.038722 -0.435363
v 0.076703 -0.038722 -0.435363
v 0.076703 -0.009668 -0.435363
v -0.073956 -0.009668 -0.435363
v 0.076703 -0.038722 -0.444214
v 0.076703 -0.009668 -0.444214
v -0.073956 -0.038722 -0.444214
v -0.073956 -0.009668 -0.444214
v 0.054818 -0.028697 -0.435924
v 0.052908 -0.022819 -0.435924
v 0.052908 -0.022819 0.471126
v 0.054818 -0.028697 0.471126
v 0.047908 -0.019186 -0.435924
v 0.047908 -0.019186 0.471126
v 0.041727 -0.019186 -0.435924
v 0.041727 -0.019186 0.471126
v 0.036727 -0.022819 -0.435924
v 0.036727 -0.022819 0.471126
v 0.034818 -0.028697 -0.435924
v 0.034818 -0.028697 0.471126
v 0.036727 -0.034574 -0.435924
v 0.036727 -0.034574 0.471126
v 0.041727 -0.038207 -0.435924
v 0.041727 -0.038207 0.471126
v 0.047908 -0.038207 -0.435924
v 0.047908 -0.038207 0.471126
v 0.052908 -0.034574 -0.435924
v 0.052908 -0.034574 0.471126
v 0.026722 -0.049728 -0.467996
v 0.024813 -0.049728 -0.473874
v 0.024813 -0.008805 -0.473874
v 0.026722 -0.008805 -0.467996
v 0.019813 -0.049728 -0.477507
v 0.019813 -0.008805 -0.477507
v 0.013632 -0.049728 -0.477507
v 0.013632 -0.008805 -0.477507
v 0.008632 -0.049728 -0.473874
v 0.008632 -0.008805 -0.473874
v 0.006722 -0.049728 -0.467996
v 0.006722 -0.008805 -0.467996
v 0.008632 -0.049728 -0.462118
v 0.008632 -0.008805 -0.462118
v 0.013632 -0.049728 -0.458486
v 0.013632 -0.008805 -0.458486
v 0.019813 -0.049728 -0.458486
v 0.019813 -0.008805 -0.458486
v 0.024813 -0.049728 -0.462118
v 0.024813 -0.008805 -0.462118
v -0.011240 -0.049728 -0.467996
v -0.013150 -0.049728 -0.473874
v -0.013150 -0.008805 -0.473874
v -0.011240 -0.008805 -0.467996
v -0.018150 -0.049728 -0.477507
v -0.018150 -0.008805 -0.477507
v -0.024330 -0.049728 -0.477507
v -0.024330 -0.008805 -0.477507
v -0.029330 -0.049728 -0.473874
v -0.029330 -0.008805 -0.473874
v -0.031240 -0.049728 -0.467996
v -0.031240 -0.008805 -0.467996
v -0.029330 -0.049728 -0.462118
v -0.029330 -0.008805 -0.462118
v -0.024330 -0.049728 -0.458486
v -0.024330 -0.008805 -0.458486
v -0.018150 -0.049728 -0.458486
v -0.018150 -0.008805 -0.458486
v -0.013150 -0.049728 -0.462118
v -0.013150 -0.008805 -0.462118
vn -0.0000 -1.0000 -0.0000
vn 0.9374 0.3481 -0.0000
vn -1.0000 -0.0000 -0.0000
vn -0.0000 -0.0000 1.0000
vn 1.0000 -0.0000 -0.0000
vn -0.0000 -0.0000 -1.0000
vn 0.9239 -0.3827 -0.0000
vn -0.9239 -0.3827 -0.0000
vn -0.0000 1.0000 -0.0000
vn -0.9239 0.3827 -0.0000
vn 0.9239 0.3827 -0.0000
vn -0.3827 -0.9239 -0.0000
vn 0.3827 -0.9239 -0.0000
vn -0.3827 0.9239 -0.0000
vn 0.9563 0.2923 -0.0000
vn -0.7071 -0.7071 -0.0000
vn 0.8038 -0.5949 -0.0000
vn 0.7071 -0.7071 -0.0000
vn 0.8090 0.5878 -0.0000
vn 0.3090 0.9511 -0.0000
vn -0.3090 0.9511 -0.0000
vn -0.8090 0.5878 -0.0000
vn -0.8090 -0.5878 -0.0000
vn -0.3090 -0.9511 -0.0000
vn 0.3090 -0.9511 -0.0000
vn 0.8090 -0.5878 -0.0000
vn 0.8090 -0.0000 -0.5878
vn 0.8090 -0.0001 -0.5878
vn 0.3090 -0.0000 -0.9511
vn -0.3090 -0.0000 -0.9511
vn -0.8090 -0.0000 -0.5878
vn -0.8090 -0.0000 0.5878
vn -0.3090 -0.0000 0.9511
vn 0.3090 -0.0000 0.9511
vn 0.8090 -0.0000 0.5878
vt 0.645383 0.753363
vt 0.645383 0.565353
vt 0.002000 0.753363
vt 0.002000 0.565353
vt 0.645383 0.757322
vt 0.645383 0.561609
vt 0.002000 0.757322
vt 0.002000 0.561609
vt 0.853389 0.048749
vt 0.853389 0.054440
vt 0.859080 0.048749
vt 0.651869 0.048749
vt 0.657560 0.054440
vt 0.657560 0.048749
vt 0.853389 0.002000
vt 0.657560 0.002000
vt 0.651869 0.002000
vt 0.657560 0.101189
vt 0.853389 0.101189
vt 0.859080 0.002000
vt 0.848571 0.608358
vt 0.848571 0.614049
vt 0.854262 0.608358
vt 0.647051 0.608358
vt 0.652742 0.614049
vt 0.652742 0.608358
vt 0.848571 0.561609
vt 0.652742 0.561609
vt 0.647051 0.561609
vt 0.652742 0.660798
vt 0.848571 0.660798
vt 0.854262 0.561609
vt 0.648397 0.516603
vt 0.003805 0.514732
vt 0.003805 0.322839
vt 0.648397 0.324710
vt 0.003805 0.279501
vt 0.648397 0.279501
vt 0.648397 0.002000
vt 0.648397 0.559941
vt 0.003805 0.002000
vt 0.003805 0.559941
vt 0.003805 0.278021
vt 0.002326 0.279501
vt 0.648397 0.278021
vt 0.649876 0.279501
vt 0.648397 0.003520
vt 0.649916 0.559941
vt 0.003805 0.003520
vt 0.002285 0.559941
vt 0.003805 0.234369
vt 0.002335 0.326102
vt 0.002025 0.324803
vt 0.648397 0.236065
vt 0.649876 0.321456
vt 0.650176 0.322756
vt 0.648397 0.047171
vt 0.649867 0.513300
vt 0.650201 0.514614
vt 0.003805 0.045476
vt 0.002285 0.517985
vt 0.002000 0.516661
vt 0.648397 0.514732
vt 0.003805 0.516603
vt 0.003805 0.324710
vt 0.648397 0.322839
vt 0.003805 0.236065
vt 0.002326 0.321456
vt 0.002025 0.322756
vt 0.648397 0.234370
vt 0.649867 0.326102
vt 0.650177 0.324803
vt 0.648397 0.045476
vt 0.649916 0.517985
vt 0.650201 0.516661
vt 0.003805 0.047171
vt 0.002335 0.513300
vt 0.002000 0.514614
vt 0.647270 0.916486
vt 0.002000 0.915343
vt 0.002000 0.761651
vt 0.647270 0.762460
vt 0.002000 0.758989
vt 0.647270 0.758989
vt 0.647270 0.919098
vt 0.002000 0.919098
vt 0.647270 0.915343
vt 0.002000 0.916486
vt 0.002000 0.762460
vt 0.647270 0.761651
vt 0.672109 0.787864
vt 0.667656 0.777707
vt 0.667656 0.782161
vt 0.760267 0.782161
vt 0.760267 0.787864
vt 0.764721 0.811036
vt 0.783439 0.787864
vt 0.667656 0.811036
vt 0.648938 0.787864
vt 0.783439 0.782161
vt 0.764721 0.758989
vt 0.667656 0.758989
vt 0.648938 0.782161
vt 0.667656 0.792318
vt 0.667656 0.787864
vt 0.672109 0.782161
vt 0.764721 0.777707
vt 0.764721 0.782161
vt 0.764721 0.792318
vt 0.764721 0.787864
vt 0.615383 0.935683
vt 0.615383 0.939658
vt 0.615383 0.943039
vt 0.615383 0.947218
vt 0.615383 0.950600
vt 0.615383 0.954574
vt 0.615383 0.958549
vt 0.615383 0.920766
vt 0.615383 0.924147
vt 0.615383 0.928327
vt 0.615383 0.931708
vt 0.002000 0.935683
vt 0.002000 0.939658
vt 0.002000 0.943039
vt 0.002000 0.947218
vt 0.002000 0.950600
vt 0.002000 0.954574
vt 0.002000 0.958549
vt 0.002000 0.920766
vt 0.002000 0.924147
vt 0.002000 0.928327
vt 0.002000 0.931708
vt 0.763198 0.126029
vt 0.763198 0.131732
vt 0.675041 0.131732
vt 0.675041 0.126029
vt 0.767652 0.121575
vt 0.767652 0.126029
vt 0.670587 0.121575
vt 0.670587 0.126029
vt 0.670587 0.102857
vt 0.651869 0.126029
vt 0.767652 0.102857
vt 0.786370 0.126029
vt 0.670587 0.136185
vt 0.670587 0.131732
vt 0.651869 0.131732
vt 0.670587 0.154903
vt 0.767652 0.136185
vt 0.767652 0.131732
vt 0.767652 0.154903
vt 0.786370 0.131732
vt 0.002000 0.983083
vt 0.002000 0.979109
vt 0.615383 0.979109
vt 0.615383 0.983083
vt 0.002000 0.975727
vt 0.615383 0.975727
vt 0.002000 0.971548
vt 0.615383 0.971548
vt 0.002000 0.968167
vt 0.615383 0.968167
vt 0.002000 0.964192
vt 0.615383 0.964192
vt 0.002000 0.960217
vt 0.002000 0.998000
vt 0.615383 0.960217
vt 0.615383 0.998000
vt 0.002000 0.994619
vt 0.615383 0.994619
vt 0.002000 0.990439
vt 0.615383 0.990439
vt 0.002000 0.987058
vt 0.615383 0.987058
vt 0.659565 0.685296
vt 0.659565 0.681281
vt 0.687164 0.681306
vt 0.687164 0.685270
vt 0.659566 0.677934
vt 0.657176 0.677965
vt 0.687164 0.677934
vt 0.659566 0.673766
vt 0.653308 0.676709
vt 0.687164 0.673766
vt 0.659566 0.670394
vt 0.649441 0.677965
vt 0.687164 0.670394
vt 0.659566 0.666430
vt 0.647051 0.681255
vt 0.687164 0.666430
vt 0.659566 0.662466
vt 0.659565 0.700147
vt 0.647051 0.685321
vt 0.687164 0.662466
vt 0.687164 0.700147
vt 0.659565 0.696775
vt 0.649441 0.688611
vt 0.687164 0.696775
vt 0.659565 0.692606
vt 0.653308 0.689867
vt 0.687164 0.692606
vt 0.659565 0.689234
vt 0.657175 0.688611
vt 0.687164 0.689234
vt 0.873262 0.024779
vt 0.873262 0.020840
vt 0.870872 0.021464
vt 0.900861 0.020840
vt 0.900861 0.024805
vt 0.873262 0.017468
vt 0.867005 0.020207
vt 0.900861 0.017468
vt 0.873262 0.013300
vt 0.863138 0.021464
vt 0.900861 0.013300
vt 0.873262 0.009928
vt 0.860748 0.024753
vt 0.900861 0.009928
vt 0.873262 0.005964
vt 0.860748 0.028820
vt 0.900861 0.005964
vt 0.873262 0.002000
vt 0.873262 0.039681
vt 0.863137 0.032109
vt 0.900861 0.002000
vt 0.900860 0.039681
vt 0.873262 0.036309
vt 0.867005 0.033366
vt 0.900860 0.036309
vt 0.873262 0.032141
vt 0.870872 0.032109
vt 0.900860 0.032141
vt 0.873262 0.028794
vt 0.900860 0.028769
s 1
f 1/1/1 3/3/1 4/4/1 2/2/1
f 2/2/2 4/4/2 8/8/2 6/6/2
f 3/3/3 1/1/3 5/5/3 7/7/3
f 9/9/1 10/10/1 11/13/1 12/14/1
f 9/9/4 12/14/4 14/16/4 13/15/4
f 12/14/5 11/12/5 15/17/5 14/16/5
f 11/13/6 10/10/6 16/19/6 15/18/6
f 10/11/3 9/9/3 13/15/3 16/20/3
f 17/21/1 18/22/1 19/25/1 20/26/1
f 17/21/4 20/26/4 22/28/4 21/27/4
f 20/26/5 19/24/5 23/29/5 22/28/5
f 19/25/6 18/22/6 24/31/6 23/30/6
f 18/23/3 17/21/3 21/27/3 24/32/3
f 44/66/7 27/35/7 29/37/5 30/38/5
f 42/64/8 25/33/8 31/40/3 32/42/3
f 30/38/9 29/37/9 33/43/9 34/45/9
f 32/41/9 31/39/9 35/47/9 36/49/9
f 34/45/3 33/43/3 45/67/10 38/54/10
f 36/49/5 35/47/5 47/73/11 40/60/11
f 41/63/12 25/33/8 42/64/8 26/34/12
f 43/65/13 27/35/7 44/66/7 28/36/13
f 45/67/10 37/51/14 46/70/14 38/54/10
f 47/73/8 40/60/8 48/76/12 39/57/12
f 39/58/4 41/63/4 28/36/4 46/71/4
f 37/52/6 43/65/6 26/34/6 48/77/6
f 38/55/4 44/66/4 30/38/4 34/46/4
f 45/68/6 33/44/6 29/37/6 27/35/6
f 47/74/4 35/48/4 31/40/4 25/33/4
f 40/61/6 42/64/6 32/42/6 36/50/6
f 41/63/4 39/59/4 47/75/4 25/33/4
f 40/62/6 48/78/6 26/34/6 42/64/6
f 37/53/6 45/69/6 27/35/6 43/65/6
f 38/56/4 46/72/4 28/36/4 44/66/4
f 57/87/1 50/80/1 59/89/1 52/82/1
f 60/90/15 51/81/15 53/83/15 54/84/15
f 58/88/3 49/79/3 55/85/3 56/86/3
f 57/87/16 49/79/16 58/88/16 50/80/16
f 59/89/17 51/81/17 60/90/17 52/82/17
f 61/91/1 70/106/1 63/94/1 64/95/1
f 61/91/4 64/95/4 72/109/4 65/96/4 66/98/4 69/104/4
f 72/110/5 71/108/5 67/100/5 65/97/5
f 63/94/6 70/106/6 62/92/6 68/102/6 67/101/6 71/107/6
f 62/93/3 69/105/3 66/99/3 68/103/3
f 61/91/16 69/105/16 62/93/16 70/106/16
f 63/94/18 71/108/18 72/110/18 64/95/18
f 73/111/5 74/112/19 84/123/19 83/122/5
f 74/112/19 75/113/20 85/124/20 84/123/19
f 75/113/20 76/114/21 86/125/21 85/124/20
f 76/114/21 77/115/22 87/126/22 86/125/21
f 77/115/22 78/116/3 88/127/3 87/126/22
f 78/116/3 79/117/23 89/128/23 88/127/3
f 79/118/23 80/119/24 90/130/24 89/129/23
f 80/119/24 81/120/25 91/131/25 90/130/24
f 81/120/25 82/121/26 92/132/26 91/131/25
f 82/121/26 73/111/5 83/122/5 92/132/26
f 93/133/1 94/134/1 95/135/1 96/136/1
f 93/133/4 96/136/4 98/139/4 99/141/4 100/143/4 97/137/4
f 98/140/5 101/146/5 102/147/5 99/142/5
f 95/135/6 94/134/6 103/149/6 104/151/6 102/148/6 101/145/6
f 103/150/3 97/138/3 100/144/3 104/152/3
f 93/133/16 97/138/16 103/150/16 94/134/16
f 95/135/18 101/146/18 98/140/18 96/136/18
f 105/153/5 106/154/19 107/155/19 108/156/5
f 106/154/19 109/157/20 110/158/20 107/155/19
f 109/157/20 111/159/21 112/160/21 110/158/20
f 111/159/21 113/161/22 114/162/22 112/160/21
f 113/161/22 115/163/3 116/164/3 114/162/22
f 115/163/3 117/165/23 118/167/23 116/164/3
f 117/166/23 119/169/24 120/170/24 118/168/23
f 119/169/24 121/171/25 122/172/25 120/170/24
f 121/171/25 123/173/26 124/174/26 122/172/25
f 123/173/26 105/153/5 108/156/5 124/174/26
f 125/175/5 126/176/27 127/177/28 128/178/5
f 126/176/27 129/179/29 130/181/29 127/177/27
f 129/179/29 131/182/30 132/184/30 130/181/29
f 131/182/30 133/185/31 134/187/31 132/184/30
f 133/185/31 135/188/3 136/190/3 134/187/31
f 135/188/3 137/191/32 138/194/32 136/190/3
f 137/192/32 139/196/33 140/198/33 138/195/32
f 139/196/33 141/199/34 142/201/34 140/198/33
f 141/199/34 143/202/35 144/204/35 142/201/34
f 143/202/35 125/175/5 128/178/5 144/204/35
f 139/197/1 131/183/1 129/180/1 141/200/1
f 137/193/1 133/186/1 131/183/1 139/197/1
f 141/200/1 129/180/1 126/176/1 143/203/1
s 0
f 133/186/1 137/193/1 135/189/1
f 125/175/1 143/203/1 126/176/1
s 1
f 145/205/5 146/206/27 147/208/28 148/209/5
f 146/206/27 149/210/29 150/212/29 147/208/27
f 149/210/29 151/213/30 152/215/30 150/212/29
f 151/213/30 153/216/31 154/218/31 152/215/30
f 153/216/31 155/219/3 156/221/3 154/218/31
f 155/219/3 157/222/32 158/225/32 156/221/3
f 157/223/32 159/227/33 160/229/33 158/226/32
f 159/227/33 161/230/34 162/232/34 160/229/33
f 161/230/34 163/233/35 164/234/35 162/232/34
f 163/233/35 145/205/5 148/209/5 164/234/35
f 159/228/1 151/214/1 149/211/1 161/231/1
f 157/224/1 153/217/1 151/214/1 159/228/1
f 161/231/1 149/211/1 146/207/1 163/233/1
s 0
f 153/217/1 157/224/1 155/220/1
f 145/205/1 163/233/1 146/207/1
